<?xml version="1.0" encoding="UTF-8"?>
<svg version="1.1" xmlns="http://www.w3.org/2000/svg" width="563" height="443">
<path d="M0 0 C1.87685827 -0.00706638 3.75371085 -0.01581441 5.6305542 -0.02610779 C10.70494593 -0.04852908 15.77902468 -0.0456793 20.85344696 -0.03678632 C25.09796815 -0.03166163 29.34243129 -0.03898087 33.58694649 -0.04625839 C43.60293823 -0.06323386 53.61877753 -0.05971468 63.63476562 -0.04296875 C73.95162389 -0.02604239 84.26805919 -0.04189451 94.58487129 -0.07419163 C103.45992211 -0.10091784 112.33484151 -0.10815555 121.20992851 -0.09967655 C126.50310534 -0.09475712 131.79602767 -0.09691003 137.08917236 -0.11746407 C142.06673378 -0.13586926 147.04368821 -0.12980333 152.02121735 -0.10526466 C153.84243724 -0.10027248 155.66370378 -0.10370496 157.48488617 -0.11641312 C168.31492646 -0.18597785 177.59403732 0.01330681 185.87109375 7.88500977 C186.39574219 8.63524414 186.92039062 9.38547852 187.4609375 10.15844727 C188.28271484 11.2915332 188.28271484 11.2915332 189.12109375 12.44750977 C192.4905585 17.94993844 191.90816367 24.30592318 191.3984375 30.53344727 C189.67127441 37.25508198 184.88333971 41.56974841 179.3984375 45.53344727 C176.38521319 47.29538315 174.16649109 47.79549537 170.68774414 47.85229492 C169.75479019 47.87216461 168.82183624 47.8920343 167.86061096 47.9125061 C166.34986244 47.92983292 166.34986244 47.92983292 164.80859375 47.94750977 C163.22708778 47.97655899 163.22708778 47.97655899 161.6136322 48.00619507 C158.22948343 48.06592111 154.84529384 48.11215558 151.4609375 48.15844727 C149.24803222 48.19667062 147.03514113 48.23572482 144.82226562 48.27563477 C138.34787126 48.38723642 131.87347047 48.46953531 125.3984375 48.53344727 C123.84319366 48.54885559 123.84319366 48.54885559 122.25653076 48.5645752 C119.32335366 48.58992011 116.39028766 48.606679 113.45703125 48.61938477 C112.58111832 48.62636383 111.70520538 48.6333429 110.80274963 48.64053345 C107.41496063 48.64575834 104.63530107 48.61240179 101.3984375 47.53344727 C101.40212467 48.69412657 101.40581184 49.85480587 101.40961075 51.05065727 C101.49631354 78.62646311 101.56223524 106.20225525 101.60269882 133.77816933 C101.60770142 137.17511117 101.61287873 140.57205273 101.61816406 143.96899414 C101.6192133 144.64524059 101.62026255 145.32148704 101.62134358 146.0182258 C101.63873072 156.95611099 101.67025902 167.89391175 101.70704868 178.83174692 C101.7445053 190.0618506 101.76638406 201.29191223 101.77479148 212.52208149 C101.78000254 218.82702926 101.79223577 225.13178578 101.82135773 231.43667221 C101.84856031 237.37426679 101.85687257 243.31159181 101.85086823 249.24924278 C101.85196628 251.42523477 101.85989104 253.60123601 101.8752594 255.777174 C101.89526279 258.75614501 101.89033873 261.73410822 101.87945557 264.71310425 C101.89110693 265.5672211 101.9027583 266.42133795 101.91476274 267.30133712 C101.84108497 274.80068224 99.66670092 281.84161506 95.1484375 287.90844727 C89.8186206 292.99599977 84.26418007 295.18407673 76.91015625 295.62329102 C69.6969711 295.36527662 64.64077034 292.40434413 59.22265625 287.83813477 C54.14382377 281.42162264 52.8072914 274.80110107 52.87945557 266.7953949 C52.87195431 265.85665514 52.86445306 264.91791537 52.8567245 263.95072895 C52.8365401 260.82760061 52.84453194 257.70520468 52.85253906 254.58203125 C52.84379905 252.33441962 52.83331178 250.0868142 52.82121277 247.83921814 C52.79338494 241.75311868 52.78994739 235.66722259 52.79093266 229.58106875 C52.78780083 223.21489342 52.76217692 216.8488093 52.73895264 210.48268127 C52.70301369 199.80257688 52.68089486 189.12253415 52.66943359 178.44238281 C52.65759415 167.44527737 52.63737636 156.44823956 52.60595703 145.45117188 C52.60305288 144.43316615 52.60305288 144.43316615 52.60009006 143.39459466 C52.59032504 139.98966172 52.58039601 136.58472928 52.57038546 133.17979705 C52.48764359 104.96437971 52.43390318 76.74896064 52.3984375 48.53344727 C51.22572044 48.53677818 51.22572044 48.53677818 50.02931213 48.54017639 C42.62989559 48.56028633 35.23049247 48.57547571 27.83105564 48.58525944 C24.02773934 48.59045857 20.22444579 48.59750173 16.42114258 48.60888672 C12.74475318 48.61982183 9.06838554 48.62574643 5.39198112 48.62832451 C3.99549963 48.63015973 2.5990192 48.63374313 1.20254707 48.63917732 C-22.54729196 48.72784775 -22.54729196 48.72784775 -32.05859375 40.11938477 C-37.12878305 34.90800032 -37.57174715 28.4903627 -37.6015625 21.53344727 C-37.20376047 15.55566545 -34.47942957 11.39368249 -31.0390625 6.61157227 C-22.17384501 -0.94659393 -10.96543967 -0.04351031 0 0 Z " fill="#F6F6F6" transform="translate(333.6015625,70.466552734375)"/>
<path d="M0 0 C6.37196263 5.64787597 10.65485672 10.05710049 11.18686104 18.80718517 C11.22558264 19.56473252 11.26430424 20.32227987 11.30419922 21.1027832 C11.34630964 21.9264227 11.38842007 22.7500622 11.43180656 23.59866047 C12.01301412 36.55870826 11.89565114 49.54071125 11.8843255 62.51101089 C11.88175372 66.38985366 11.88415248 70.26869434 11.88571167 74.14753723 C11.88751888 80.65199211 11.88516474 87.15643554 11.88037109 93.66088867 C11.87492439 101.13691408 11.87669998 108.61291223 11.8821975 116.08893698 C11.88676198 122.56000727 11.88736317 129.03106944 11.88475883 135.50214082 C11.88321517 139.34434442 11.88294908 143.18653528 11.88629532 147.02873802 C11.91789908 189.12676284 11.91789908 189.12676284 6.75 207.4375 C6.56421387 208.09669434 6.37842773 208.75588867 6.18701172 209.43505859 C1.02841053 227.22533379 -9.22660182 246.89024899 -23.25 259.4375 C-23.971875 259.788125 -24.69375 260.13875 -25.4375 260.5 C-27.40459564 261.28180809 -27.40459564 261.28180809 -28.0859375 263.2578125 C-32.19786112 270.95732048 -43.00807658 276.02169304 -50.25 280.4375 C-51.09691406 280.97503906 -51.94382813 281.51257813 -52.81640625 282.06640625 C-63.8735039 288.97060337 -75.84971024 292.353709 -88.375 295.5625 C-89.03193848 295.73330078 -89.68887695 295.90410156 -90.36572266 296.08007812 C-107.86189205 300.46832546 -126.80169886 299.53250945 -144.25 295.4375 C-145.38953125 295.18226563 -146.5290625 294.92703125 -147.703125 294.6640625 C-154.97640966 292.82036941 -161.71344178 290.09573543 -168.5625 287.0625 C-169.38661377 286.69946777 -170.21072754 286.33643555 -171.05981445 285.96240234 C-184.97116663 279.59901113 -203.91868445 268.25421008 -211.25 254.4375 C-213.91932793 246.93795963 -213.66194179 239.75638078 -211.1875 232.1875 C-206.93376136 226.14993548 -201.38156979 221.56445941 -194.25 219.4375 C-187.35954536 218.40522215 -181.22435896 219.90978328 -175.25 223.4375 C-172.90247692 225.51128364 -170.78844703 227.71716148 -168.64453125 230 C-154.93835933 243.95212281 -138.27894412 249.58545089 -119.06811523 249.76733398 C-98.32425549 249.65247677 -79.26624918 246.60445031 -63.25 232.4375 C-62.44820312 231.83292969 -61.64640625 231.22835937 -60.8203125 230.60546875 C-46.20773704 218.28027213 -39.89640529 199.78273815 -37.25 181.4375 C-37.15887209 179.17298134 -37.11689993 176.90619292 -37.11196899 174.6398468 C-37.10914771 173.98094599 -37.10632643 173.32204519 -37.10341966 172.64317769 C-37.09512733 170.44871113 -37.09374004 168.25429536 -37.09228516 166.05981445 C-37.08761291 164.48073689 -37.08246867 162.90166067 -37.07688904 161.32258606 C-37.06563424 157.92759135 -37.0571874 154.53260528 -37.05076981 151.13759804 C-37.04005662 145.76147351 -37.01980232 140.38541117 -36.99765015 135.00932312 C-36.9358394 119.72344824 -36.88176079 104.4375773 -36.84863281 89.15161133 C-36.83024713 80.70494376 -36.80126248 72.25838078 -36.7606281 63.81179017 C-36.73962567 59.34745982 -36.72411044 54.88326089 -36.72182083 50.41887856 C-36.71966241 46.21545266 -36.70367229 42.01230043 -36.67743111 37.80895805 C-36.67028214 36.27359657 -36.66811556 34.73820177 -36.67153358 33.20282745 C-36.70846709 13.44411047 -36.70846709 13.44411047 -31.34765625 5.68359375 C-30.34025391 4.78833984 -30.34025391 4.78833984 -29.3125 3.875 C-28.64347656 3.25496094 -27.97445312 2.63492188 -27.28515625 1.99609375 C-19.68920067 -3.82115438 -8.49358973 -4.0834566 0 0 Z " fill="#F8F8F8" transform="translate(249.25,69.5625)"/>
<path d="M0 0 C0.99 0.495 0.99 0.495 2 1 C-2.84294848 4.88068353 -7.7707722 4.47398694 -13.6875 4.51171875 C-14.74042236 4.52966995 -15.79334473 4.54762115 -16.87817383 4.56611633 C-20.25207379 4.62017527 -23.6258402 4.65396108 -27 4.6875 C-29.2083532 4.72070954 -31.41668749 4.7552025 -33.625 4.79101562 C-40.08318029 4.88979808 -46.5412737 4.95076274 -53 5 C-54.03576172 5.00920471 -55.07152344 5.01840942 -56.13867188 5.02789307 C-59.07161745 5.05213567 -62.00448681 5.06867349 -64.9375 5.08203125 C-65.81365967 5.08925705 -66.68981934 5.09648285 -67.5925293 5.10392761 C-70.98177188 5.11049081 -73.76164256 5.07945248 -77 4 C-76.99631283 5.1606793 -76.99262566 6.3213586 -76.98882675 7.51721001 C-76.90212396 35.09301584 -76.83620226 62.66880798 -76.79573868 90.24472206 C-76.79073608 93.6416639 -76.78555877 97.03860546 -76.78027344 100.43554688 C-76.7792242 101.11179332 -76.77817495 101.78803977 -76.77709392 102.48477854 C-76.75970678 113.42266372 -76.72817848 124.36046449 -76.69138882 135.29829966 C-76.6539322 146.52840333 -76.63205344 157.75846496 -76.62364602 168.98863423 C-76.61843496 175.29358199 -76.60620173 181.59833852 -76.57707977 187.90322495 C-76.54987719 193.84081952 -76.54156493 199.77814454 -76.54756927 205.71579552 C-76.54647122 207.8917875 -76.53854646 210.06778874 -76.5231781 212.24372673 C-76.50317471 215.22269774 -76.50809877 218.20066095 -76.51898193 221.17965698 C-76.50733057 222.03377383 -76.4956792 222.88789068 -76.48367476 223.76788986 C-76.55877505 231.41202752 -78.78378138 238.46783812 -83.5 244.5625 C-85.82015423 246.82465037 -86.82369091 247.76471784 -90 248 C-89.2575 247.319375 -88.515 246.63875 -87.75 245.9375 C-82.09304098 240.20191248 -80.40402811 235.137522 -80.40174866 227.29595947 C-80.38604336 226.45437459 -80.37033807 225.61278972 -80.35415685 224.74570227 C-80.30724824 221.96873263 -80.28826415 219.19233182 -80.26977539 216.41503906 C-80.24272691 214.44040951 -80.21412564 212.46580068 -80.1840601 210.49121475 C-80.11119456 205.33974952 -80.06319932 200.18839021 -80.02394724 195.0365696 C-80.00097783 192.12399098 -79.97309355 189.21151017 -79.94312668 186.29899597 C-79.81784431 173.99082177 -79.74802375 161.68274841 -79.69667697 149.37406826 C-79.67419909 144.19461599 -79.64712467 139.01518735 -79.62062073 133.83575439 C-79.57150094 124.10846667 -79.526277 114.38116526 -79.48259836 104.65385175 C-79.4325174 93.54540913 -79.37787159 82.43699026 -79.32291877 71.32857084 C-79.21034448 48.55240289 -79.10325432 25.77621199 -79 3 C-77.62603813 2.98786972 -77.62603813 2.98786972 -76.22431946 2.97549438 C-67.58737956 2.89751739 -58.95059488 2.81021718 -50.31385517 2.71247292 C-45.8737379 2.66255104 -41.43364394 2.61622064 -36.9934082 2.578125 C-32.70743512 2.54122028 -28.42165906 2.49484624 -24.13585472 2.44193649 C-22.50165454 2.4234201 -20.86741216 2.40830197 -19.23314857 2.39665604 C-16.94209288 2.37974628 -14.6514857 2.35070039 -12.3605957 2.31884766 C-11.05709671 2.30552399 -9.75359772 2.29220032 -8.41059875 2.2784729 C-5.15375733 2.01255417 -2.97115862 1.25926046 0 0 Z " fill="#585858" transform="translate(512,114)"/>
<path d="M0 0 C0.33 0 0.66 0 1 0 C1.02332673 22.14797429 1.04097806 44.29594656 1.05181217 66.44393063 C1.05697561 76.72686612 1.06401922 87.009794 1.07543945 97.29272461 C1.08538483 106.2519195 1.09185308 115.21110887 1.09408849 124.17030913 C1.09539585 128.91720071 1.09848327 133.66407652 1.10573006 138.41096306 C1.11248797 142.87353026 1.11461743 147.33607509 1.11310768 151.79864693 C1.11338411 153.44142401 1.11539059 155.08420181 1.11920547 156.72697449 C1.12413916 158.95997371 1.12299951 161.19288709 1.12025452 163.42588806 C1.12117631 164.67860473 1.1220981 165.93132139 1.12304783 167.22199917 C1 170 1 170 0 171 C-0.2540296 172.34972356 -0.47678888 173.70533916 -0.6875 175.0625 C-1.62827226 180.00155438 -3.16836108 184.56056642 -4.9375 189.25 C-5.31684692 190.25945679 -5.31684692 190.25945679 -5.70385742 191.28930664 C-7.25459236 195.31664039 -9.00585378 199.16647712 -11 203 C-11.66 203 -12.32 203 -13 203 C-11.98572024 199.61906745 -10.845004 196.7210072 -9.125 193.625 C-4.04462323 183.80674377 -1.8960141 171.06249386 -1.84851074 160.16197205 C-1.84427833 159.49883784 -1.84004592 158.83570364 -1.83568525 158.15247446 C-1.82273265 155.94401374 -1.81665166 153.73558905 -1.81054688 151.52709961 C-1.80259872 149.93828617 -1.79421031 148.34947488 -1.78541565 146.76066589 C-1.76739719 143.34601914 -1.75236801 139.931377 -1.73963928 136.51670647 C-1.71937579 131.11702817 -1.6917301 125.71740305 -1.66296387 120.31776428 C-1.59784151 107.88289967 -1.54235334 95.44799556 -1.48697662 83.01308441 C-1.43610994 71.61195361 -1.38321081 60.21084213 -1.32245111 48.8097592 C-1.29412523 43.44218143 -1.27052136 38.07460987 -1.25052643 32.70699489 C-1.23712996 29.36891576 -1.21971844 26.03086632 -1.20121574 22.69281197 C-1.19346732 21.14524716 -1.18739441 19.59767291 -1.18312263 18.0500946 C-1.1770623 15.93702743 -1.16500734 13.82407504 -1.15148926 11.71104431 C-1.14633553 10.52880248 -1.14118179 9.34656065 -1.13587189 8.12849331 C-1.01303828 5.30021057 -0.64829728 2.74971139 0 0 Z " fill="#555555" transform="translate(214,84)"/>
<path d="M0 0 C0.33 0 0.66 0 1 0 C2.15943073 16.34913029 2.14862867 32.6932954 2.1343255 49.07351089 C2.13175372 52.95235366 2.13415248 56.83119434 2.13571167 60.71003723 C2.13751888 67.21449211 2.13516474 73.71893554 2.13037109 80.22338867 C2.12492439 87.69941408 2.12669998 95.17541223 2.1321975 102.65143698 C2.13676198 109.12250727 2.13736317 115.59356944 2.13475883 122.06464082 C2.13321517 125.90684442 2.13294908 129.74903528 2.13629532 133.59123802 C2.16697042 174.51786593 2.16697042 174.51786593 -1.0625 186.5 C-1.24876953 187.23863281 -1.43503906 187.97726562 -1.62695312 188.73828125 C-2.07195011 190.49544883 -2.53389523 192.24831323 -3 194 C-3.9032484 191.0449376 -4.01518456 188.97066831 -3.45939636 185.94139099 C-0.4303451 167.63330104 -0.51946001 149.44500602 -0.49388909 130.94578099 C-0.48437686 126.32671384 -0.45816551 121.70773872 -0.43388367 117.08872986 C-0.39056273 108.38072814 -0.3618062 99.67274463 -0.33856028 90.96466869 C-0.31132179 81.03440321 -0.26742352 71.1042319 -0.22227156 61.17403424 C-0.12991934 40.78274048 -0.05801493 20.39141852 0 0 Z " fill="#636363" transform="translate(259,83)"/>
<path d="M0 0 C2.64 0 5.28 0 8 0 C4.8321342 1.74232619 1.75468668 2.69540783 -1.75 3.5625 C-2.73484375 3.81128906 -3.7196875 4.06007813 -4.734375 4.31640625 C-12.24791628 5.88921693 -19.53387765 6.19254482 -27.1875 6.1875 C-28.70355835 6.1884668 -28.70355835 6.1884668 -30.25024414 6.18945312 C-37.67425316 6.13710015 -44.72471895 5.56397596 -52 4 C-52 3.67 -52 3.34 -52 3 C-50.85112305 3.00523682 -49.70224609 3.01047363 -48.51855469 3.01586914 C-44.20215655 3.03415026 -39.88576175 3.04551535 -35.56933594 3.05493164 C-33.71125714 3.05991956 -31.85318218 3.06671228 -29.99511719 3.07543945 C-19.9504266 3.12139202 -9.99697537 3.14210679 0 2 C0 1.34 0 0.68 0 0 Z " fill="#515151" transform="translate(161,362)"/>
<path d="M0 0 C0.33 0 0.66 0 1 0 C1.10065499 4.95803233 1.17228729 9.91544002 1.21972656 14.87426758 C1.23955063 16.55275865 1.26661836 18.23118353 1.30175781 19.90942383 C1.54560159 31.87569865 0.29159052 42.48221639 -3 54 C-3.95241044 50.92408967 -3.98840023 48.69471219 -3.4765625 45.52734375 C-3.34290283 44.63990479 -3.20924316 43.75246582 -3.0715332 42.83813477 C-2.92417725 41.88092529 -2.77682129 40.92371582 -2.625 39.9375 C-0.71432696 26.6597772 -0.2801134 13.39746786 0 0 Z " fill="#8C8C8C" transform="translate(259,223)"/>
<path d="M0 0 C0 3.02018914 -0.04989437 5.13248662 -1 8 C-3.58203125 10.38671875 -3.58203125 10.38671875 -6.8125 12.6875 C-8.39998047 13.83798828 -8.39998047 13.83798828 -10.01953125 15.01171875 C-12.31940707 16.54597405 -14.49037738 17.86368177 -17 19 C-13.83224411 15.10818562 -10.55106834 11.55106834 -7 8 C-4.63600714 5.35963219 -2.31240768 2.68559162 0 0 Z " fill="#656565" transform="translate(200,287)"/>
<path d="M0 0 C-6.72976216 3.17441612 -11.69937859 3.11388158 -19 2 C-19 1.67 -19 1.34 -19 1 C-16.39674384 0.63752129 -13.79279598 0.28472345 -11.1875 -0.0625 C-10.44951172 -0.16626953 -9.71152344 -0.27003906 -8.95117188 -0.37695312 C-5.56825221 -0.82086566 -3.27944975 -1.09314992 0 0 Z " fill="#686868" transform="translate(422,363)"/>
</svg>
